<svg id="Layer_1" data-name="Layer 1" xmlns="http://www.w3.org/2000/svg" viewBox="0 0 14 14"><path d="M7,3C8.3,3,8.46,3,9,3a2.54,2.54,0,0,1,.9.17,1.41,1.41,0,0,1,.56.37,1.41,1.41,0,0,1,.37.56A2.54,2.54,0,0,1,11,5c0,.51,0,.67,0,2s0,1.46,0,2a2.54,2.54,0,0,1-.17.9,1.68,1.68,0,0,1-.93.93A2.54,2.54,0,0,1,9,11c-.51,0-.67,0-2,0s-1.46,0-2,0a2.54,2.54,0,0,1-.9-.17,1.41,1.41,0,0,1-.56-.37,1.41,1.41,0,0,1-.37-.56A2.54,2.54,0,0,1,3,9c0-.51,0-.67,0-2S3,5.54,3,5a2.54,2.54,0,0,1,.17-.9,1.41,1.41,0,0,1,.37-.56,1.41,1.41,0,0,1,.56-.37A2.54,2.54,0,0,1,5,3c.51,0,.67,0,2,0m0-.87c-1.32,0-1.49,0-2,0a3.49,3.49,0,0,0-1.18.22A2.44,2.44,0,0,0,2.38,3.81,3.49,3.49,0,0,0,2.16,5c0,.52,0,.69,0,2s0,1.49,0,2a3.49,3.49,0,0,0,.22,1.18,2.44,2.44,0,0,0,1.43,1.43A3.49,3.49,0,0,0,5,11.84c.52,0,.69,0,2,0s1.49,0,2,0a3.49,3.49,0,0,0,1.18-.22,2.44,2.44,0,0,0,1.43-1.43A3.49,3.49,0,0,0,11.84,9c0-.52,0-.69,0-2s0-1.49,0-2a3.49,3.49,0,0,0-.22-1.18,2.44,2.44,0,0,0-1.43-1.43A3.49,3.49,0,0,0,9,2.16c-.52,0-.69,0-2,0Z"/><path d="M7,4.5A2.5,2.5,0,1,0,9.5,7,2.5,2.5,0,0,0,7,4.5ZM7,8.62A1.62,1.62,0,1,1,8.62,7,1.61,1.61,0,0,1,7,8.62Z"/><circle cx="9.6" cy="4.4" r="0.58"/></svg>