<svg id="Layer_1" data-name="Layer 1" xmlns="http://www.w3.org/2000/svg" viewBox="0 0 797 218"><defs><style>.cls-1{fill:none;}</style></defs><rect class="cls-1" x="571.91" y="101.71" width="122.88" height="79.55" rx="36"/><path class="cls-1" d="M486,140.73a36,36,0,0,0-36-36H439.15a36,36,0,0,0-36,36v76.53H486Z"/><rect class="cls-1" x="233.91" y="101.71" width="81" height="79.55" rx="36"/><path d="M350.91,145.26v-7.55a72.08,72.08,0,0,0-72-72h-9a72.08,72.08,0,0,0-72,72v7.55a72.08,72.08,0,0,0,72,72h9A72.08,72.08,0,0,0,350.91,145.26Zm-36,0a36,36,0,0,1-36,36h-9a36,36,0,0,1-36-36v-7.55a36,36,0,0,1,36-36h9a36,36,0,0,1,36,36Z"/><path d="M658.78,65.71H607.91a72.08,72.08,0,0,0-72,72v7.55a72.08,72.08,0,0,0,72,72h50.87a72.08,72.08,0,0,0,72-72v-7.55A72.08,72.08,0,0,0,658.78,65.71Zm36,79.55a36,36,0,0,1-36,36H607.91a36,36,0,0,1-36-36v-7.55a36,36,0,0,1,36-36h50.87a36,36,0,0,1,36,36Z"/><polygon points="117.17 136.26 188.91 64.53 138 64.53 36.17 166.35 36.17 217.26 36.17 217.26 100.58 152.85 83.98 136.25 117.17 136.26"/><polygon points="36.17 0.73 0.17 0.73 0.17 202.35 36.17 166.35 36.17 0.73"/><polygon points="0.17 202.35 0.17 217.26 36.17 217.26 36.17 166.35 0.17 202.35"/><polygon points="117.17 136.26 100.58 152.85 164.98 217.25 215.91 217.27 134.91 136.27 117.17 136.26"/><polygon points="83.98 136.25 100.58 152.85 117.17 136.26 83.98 136.25"/><path d="M767.23,160.06a28.6,28.6,0,1,0,28.6,28.6A28.85,28.85,0,0,0,767.23,160.06Z"/><path d="M439.15,104.73H450a36,36,0,0,1,36,36v76.53h36V140.73a72.08,72.08,0,0,0-72-72H439.15a71.51,71.51,0,0,0-36,9.69v62.31A36,36,0,0,1,439.15,104.73Z"/><path d="M403.15,78.42V.73h-36v140A72,72,0,0,1,403.15,78.42Z"/><path d="M403.15,140.73V78.42a72,72,0,0,0-36,62.31v76.53h36Z"/></svg>